<svg xmlns="http://www.w3.org/2000/svg" width="256" height="256"><path fill-opacity=".016" d="M0 128.004v128.004l128.25-.254 128.25-.254.254-127.75L257.008 0H0v128.004m.485.496c0 70.4.119 99.053.265 63.672.146-35.38.146-92.98 0-128C.604 29.153.485 58.1.485 128.5" fill="#1976D2" fill-rule="evenodd"/><path fill-opacity=".155" d="M56.851 8.012C30.908 10.494 12.4 25.713 6.27 49.603 4.654 55.901 4.5 63.018 4.5 131.5c0 83.104-.12 81.386 6.62 94.738 4.142 8.205 14.443 18.438 22.672 22.522 13.552 6.725 13.758 6.74 93.708 6.74 80.846 0 81.344-.035 94.722-6.731 10.434-5.223 18.306-13.002 23.184-22.911 6.735-13.681 6.713-13.346 6.361-97.741-.35-83.776.005-79.132-7.065-92.485-6.587-12.441-20.884-23.017-35.445-26.22-8.725-1.919-52.535-3.156-50.257-1.418 1.159.884.249 1.013-4 .57l-5.5-.574-8.936 20.755c-4.915 11.415-10.09 23.308-11.5 26.427l-2.564 5.673V50.172c0-11.169-1.963-19.652-5.163-22.307-5.376-4.462-5.877 18.229-.63 28.501 1.887 3.694 2.04 13.091.289 17.839-.874 2.373-2.352 4.114-4.108 4.842-5.609 2.323-7.476 6.953-2.803 6.953 1.896 0 1.906.116.289 3.244-.922 1.783-2.02 4.371-2.44 5.75-.597 1.962-.784 1.42-.863-2.494-.056-2.75-.553-5.675-1.104-6.5-.848-1.268-1.381-1.072-3.451 1.266-3.577 4.042-5.742 12.003-6.057 22.265-.252 8.247-2.401 18.672-4.629 22.457-.49.832-3.565 7.587-6.834 15.012-3.269 7.425-5.955 12.919-5.97 12.208-.014-.71-1.377-11.735-3.028-24.5l-9.405-72.732c-3.521-27.238-6.168-50.751-5.881-52.25.287-1.499.356-2.663.155-2.586-.202.077-3.809.469-8.016.872" fill="#1976D2" fill-rule="evenodd"/><path fill-opacity=".208" d="M57.733 8.601c-.331.33-2.543.773-4.917.985-4.589.408-8.155.996-8.566 1.411-.138.139-.7.366-1.25.503s-1.225.363-1.5.5c-.769.384-2.352.737-3.929.875-.785.069-2.135.832-3 1.696-.864.865-1.571 1.284-1.571.932 0-.707-5.53 2.953-8.196 5.425-9.595 8.894-14.29 15.977-17.203 25.952-3.094 10.598-3.772 29.87-3.329 94.642.378 55.199.645 63.904 2.165 70.478 3.752 16.222 13.966 29.644 27.705 36.405C45.002 253.75 53.445 255 78.677 255h21.501l-2.52-2.995c-1.386-1.647-2.763-3.784-3.061-4.75-.505-1.637-7.723-54.842-14.618-107.755C67.624 44.687 64 15.81 64 12.173 64 8.258 63.825 8 61.167 8c-1.559 0-3.104.27-3.434.601m107.29 3.068c1.525 1.743 3.051 4.893 3.389 7 1.87 11.643 28.977 177.728 31.543 193.268 1.675 10.141 3.045 19.971 3.045 21.846 0 4.469-2.666 8.84-6.456 10.588-1.674.772-19.244 3.307-39.044 5.632-19.8 2.326-36.218 4.432-36.485 4.681-.267.249 18.858.275 42.5.057 46.662-.43 47.462-.517 59.354-6.416 7.618-3.78 18.064-14.268 22.024-22.112 6.809-13.489 6.607-10.611 6.607-94.213 0-83.369.168-80.919-6.463-94.5-3.195-6.545-12.345-17.5-14.617-17.5-.781 0-1.42-.45-1.42-1s-.675-1-1.5-1-1.5-.395-1.5-.879c0-.908-5.389-3.474-6.595-3.139-.375.104-.998-.323-1.384-.948-.386-.625-2.012-1.307-3.612-1.516-1.6-.209-2.909-.469-2.909-.577 0-.108-.9-.371-2-.584-6.14-1.19-12.817-1.582-29.126-1.712L162.248 8.5l2.775 3.169m-47.579 20.858c-.825 5.498.934 18.156 3.23 23.25.923 2.048 1.563 5.378 1.423 7.4-.347 5.003 3.257 13.092 5.631 12.642 2.456-.465 2.835-6.574.713-11.471-1.141-2.631-1.739-7.169-1.891-14.348-.257-12.177-3.187-22-6.561-22-1.447 0-2.019 1.017-2.545 4.527m30.012 42.544c-2.87 4.644 9.07 29.929 14.133 29.929 4.351 0-1.438-18.959-8.203-26.862-3.676-4.295-4.809-4.881-5.93-3.067M133.25 76.22c-2.978 1.437-2.84 2.605.455 3.858 5.307 2.018 15.199-1.628 11.231-4.139-1.938-1.226-8.908-1.058-11.686.281m-6.622 1.573c-2.513 4.066-1.152 19.973 2.395 27.992 1.608 3.634 1.775 5.154.965 8.766-1.315 5.872.435 18.564 3.406 24.699 2.002 4.135 2.088 4.75.66 4.75-.903 0-4.095 1.24-7.095 2.755-4.555 2.301-5.673 3.413-6.785 6.75-1.625 4.875-1.836 20.965-.324 24.745.806 2.014.798 3.486-.031 5.5-1.466 3.563-1.437 19.559.045 24.884 1.28 4.598 3.664 7.238 5.175 5.727.524-.524 1.429-3.524 2.009-6.665 1.178-6.371-.109-19.107-2.392-23.685-1.09-2.184-1.088-2.981.015-4.643 1.85-2.785 3.271-15.804 2.412-22.079-.7-5.108-.659-5.223 2.054-5.819 1.523-.335 3.933-1.524 5.356-2.643 1.709-1.345 4.268-2.091 7.547-2.2 4.747-.158 4.96-.05 4.96 2.499 0 6.667 6.212 21.251 9.607 22.553 3.611 1.386 3.999-5.17.931-15.752-1.419-4.898-6-14.496-7.269-15.231-.423-.245-3.067-.141-5.875.232l-5.107.677-.037-8.108c-.039-8.525-2.546-19.668-4.856-21.585-1.035-.859-1.093-1.606-.247-3.186.691-1.292.929-5.702.636-11.789-.368-7.631-.987-10.761-2.876-14.536-2.381-4.759-4.203-6.35-5.279-4.608m-10.813 2.242c-4.347 2.296-5.441 3.739-3.96 5.22 2.314 2.314 14.247-3.662 12.608-6.315-.921-1.49-4.646-1.019-8.648 1.095m-11.356 11.273c-3.072 6.712-5.271 20.481-3.895 24.393.75 2.134.521 3.639-1.031 6.772-3.785 7.638-3.078 28.736.967 28.824 4.034.088 7.436-23.71 4.29-30.015-1.34-2.688-1.318-3.214.226-5.381 3.176-4.456 5.371-13.098 5.429-21.376.047-6.857-.193-8.025-1.715-8.328-1.311-.26-2.419 1.067-4.271 5.111m54.943 16.942c-2.305 7.078 1.046 27.753 4.886 30.147 2.74 1.708 3.681-.819 3.685-9.897.005-11.315-3.197-22.5-6.441-22.5-.768 0-1.727 1.013-2.13 2.25m-3.019 67.359c-.36 1.436-.391 5.598-.07 9.25 1.101 12.496 5.826 23.335 8.866 20.339 2.989-2.945.403-23.433-3.78-29.948-1.933-3.009-4.211-2.846-5.016.359m9.367 32.413c-2.401 1.478-2.197 2.453.797 3.817 5.424 2.472 14.784.153 11.762-2.913-1.598-1.621-10.369-2.253-12.559-.904m-45.216 12.228c-3.954 3.739-4.924 6.995-2.247 7.544 2.109.433 9.713-6.751 9.713-9.176 0-2.682-3.777-1.857-7.466 1.632" fill="#1976D2" fill-rule="evenodd"/><path fill-opacity=".798" d="M118.336 29.567c-1.097 2.859.398 19.86 2.15 24.433.947 2.475 1.884 6.852 2.08 9.726.531 7.745 4.433 14.359 6.581 11.152 1.331-1.987.111-8.94-2.103-11.988-1.558-2.143-1.734-3.305-.988-6.5 2.354-10.072-4.719-34.645-7.72-26.823M134.7 76.179c-5.807 2.117-.383 4.734 6.958 3.357 3.808-.714 4.449-3.006 1.092-3.906-2.973-.796-4.679-.68-8.05.549m12.792-.166c-.831 1.345 2.091 11.231 5.041 17.052C157.162 102.2 163 107.013 163 101.694c0-4.075-4.052-14.465-8.061-20.667-3.689-5.707-6.04-7.29-7.447-5.014m-20.36 2.741c-2.553 4.769-.484 23.008 3.258 28.718 1.251 1.91 1.411 3.031.64 4.472-2.377 4.442-.047 23.329 3.557 28.829 1.736 2.649 1.117 4.227-1.657 4.227-3.81 0-10.806 4.377-11.988 7.5-1.933 5.105-2.349 20.428-.684 25.188 1.075 3.073 1.169 4.485.354 5.302-1.596 1.598-1.401 22.564.254 27.315 1.519 4.359 4.124 4.702 5.24.69 1.768-6.352.306-24.441-2.23-27.606-.543-.678-.221-2.628.825-5 1.25-2.832 1.763-7.005 1.889-15.359l.172-11.471 2.9-.751c1.596-.414 3.88-1.664 5.077-2.78 1.565-1.457 3.537-2.028 7.011-2.028h4.833l1.691 7.25c1.982 8.498 6.662 18.25 8.758 18.25 1.156 0 1.435-1.383 1.315-6.5-.157-6.635-2.61-14.693-6.31-20.727-1.94-3.163-2.094-3.216-7.844-2.711l-5.864.515.448-5.405c.559-6.738-1.345-18.401-3.784-23.186-1.489-2.92-1.64-4.201-.784-6.655 1.938-5.561-.916-23.313-4.547-28.279-1.368-1.87-1.424-1.865-2.53.202m-8.632.46c-3.266 1.14-6.5 3.598-6.5 4.941 0 1.583 5.49.844 8.823-1.189 5.06-3.084 3.408-5.752-2.323-3.752m-11.741 8.536c-3.064 3.458-7.452 21.755-6.195 25.834 1.474 4.785 1.394 4.696 3.006 3.358 3.601-2.988 8.125-21.074 6.927-27.692-.665-3.68-1.507-4.018-3.738-1.5m53.258 20.706c-3.174 8.347 2.243 33.691 6.326 29.598 3.081-3.087.037-27.834-3.816-31.032-1.244-1.032-1.664-.792-2.51 1.434m-59.854 13.085c-2.879 6.318-3.741 22.184-1.52 27.971 1.205 3.141 3.34 1.354 4.935-4.132 1.675-5.761 2.269-20.136.998-24.141-.945-2.977-2.982-2.838-4.413.302m57.255 52.592c-1.435 2.321-.519 15.33 1.541 21.892 2.563 8.167 3.388 9.439 5.578 8.599 3.715-1.425-.024-26.04-4.582-30.164-1.372-1.243-1.927-1.314-2.537-.327m8.042 34.932c-1.163 1.881 1.689 2.973 7.04 2.695 3.662-.19 5-.661 5-1.76 0-1.899-10.92-2.748-12.04-.935m-44.457 11.551c-4.272 3.859-5.141 6.384-2.199 6.384 2.259 0 8.196-6.011 8.196-8.298 0-2.577-1.586-2.071-5.997 1.914" fill="#1976D2" fill-rule="evenodd"/></svg>